<svg width="32" height="32" viewBox="0 0 32 32" fill="none" xmlns="http://www.w3.org/2000/svg">
<g clip-path="url(#clip0_149_17555)">
<path d="M16.0042 32C7.16691 32.0021 -0.0168435 24.8111 2.9663e-05 15.9789C0.0169028 7.1615 7.1859 0.00210989 16.0021 4.6424e-07C24.8395 -0.00210896 32.0127 7.18471 32 16.0253C31.9874 24.8533 24.831 32 16.0042 32ZM9.98474 14.3673C9.26552 14.3736 8.73612 14.7006 8.42818 15.3461C8.10548 16.0232 8.2468 16.7531 8.8015 17.3121C10.0733 18.5967 11.3536 19.875 12.6338 21.1512C13.4543 21.9718 14.4393 21.9676 15.2745 21.1428C15.806 20.6196 16.3291 20.0902 16.8563 19.5628C18.9423 17.4766 21.024 15.3862 23.1184 13.3063C23.6351 12.7916 23.8671 12.203 23.671 11.4964C23.3082 10.1906 21.7453 9.82993 20.7456 10.8256C18.5753 12.9835 16.4092 15.1478 14.2579 17.3247C13.9984 17.5863 13.8761 17.5652 13.6378 17.3184C12.8574 16.5063 12.0496 15.7216 11.2566 14.9221C10.9043 14.5677 10.4951 14.3568 9.98474 14.3673Z" fill="#1DC13B"/>
<path d="M9.98472 14.3672C10.4951 14.3567 10.9043 14.5676 11.2565 14.9199C12.0496 15.7194 12.8574 16.5041 13.6378 17.3162C13.8761 17.5651 13.9984 17.5841 14.2579 17.3225C16.4092 15.1456 18.5753 12.9813 20.7477 10.8234C21.7474 9.82985 23.3103 10.1885 23.6731 11.4942C23.8692 12.2008 23.6372 12.7894 23.1205 13.3041C21.0282 15.384 18.9444 17.4744 16.8584 19.5606C16.3311 20.088 15.806 20.6175 15.2766 21.1406C14.4413 21.9654 13.4585 21.9675 12.6359 21.149C11.3557 19.8707 10.0754 18.5945 8.80359 17.3099C8.24889 16.7488 8.10757 16.0189 8.43027 15.3439C8.73399 14.7005 9.2655 14.3736 9.98472 14.3672Z" fill="#F4F5F4"/>
</g>
<defs>
<clipPath id="clip0_149_17555">
<rect width="32" height="32" fill="white"/>
</clipPath>
</defs>
</svg>
