<svg width="29" height="32" viewBox="0 0 29 32" fill="none" xmlns="http://www.w3.org/2000/svg">
<path d="M14.7318 31.9597C14.4822 31.9594 14.2346 31.9157 13.9999 31.8305C11.9765 31.0556 5.04503 28.2034 2.48342 22.0684C0.567583 17.4941 0.739793 10.003 0.955055 6.9893C1.0304 5.68696 2.23586 5.22415 2.81707 4.98736C5.33564 3.99715 11.5567 1.4463 13.7093 0.273118C14.0301 0.0940225 14.3914 0 14.7587 0C15.1261 0 15.4874 0.0940225 15.8081 0.273118C17.9608 1.4463 24.1495 3.99715 26.6466 4.97659C27.2278 5.20262 28.444 5.6762 28.5194 6.97853C28.6916 9.9922 28.8961 17.4833 26.9802 22.0469C24.4186 28.2034 17.541 31.0556 15.496 31.8305C15.2507 31.9177 14.9921 31.9614 14.7318 31.9597ZM14.7318 1.47859C14.6113 1.47511 14.4921 1.5049 14.3874 1.56469C12.181 2.78092 6.00295 5.31025 3.35523 6.35427C2.58028 6.65564 2.4296 6.84938 2.40807 7.0754C2.24663 9.98144 2.04213 17.2035 3.83957 21.498C6.18592 27.084 12.6115 29.764 14.5273 30.4529C14.6768 30.5071 14.8406 30.5071 14.9901 30.4529C16.8845 29.764 23.3423 27.084 25.6241 21.498C27.4215 17.1927 27.2278 9.98144 27.0556 7.0754C27.0556 6.84938 26.8834 6.65564 26.1084 6.35427C23.4822 5.27796 17.3257 2.78092 15.1085 1.56469C14.9942 1.49946 14.8631 1.46951 14.7318 1.47859Z" fill="white"/>
<path d="M8.43914 21.5643V9.92742H10.4008L14.3407 17.7906L18.264 9.92742H20.2423V21.5643H18.5798V12.8366L14.9724 19.9351H13.6924L10.1016 12.8533V21.5643H8.43914Z" fill="white"/>
</svg>
