<svg width="21" height="24" viewBox="0 0 21 24" fill="none" xmlns="http://www.w3.org/2000/svg">
<path d="M10.141 23.9919C7.45062 23.9919 4.75286 23.9919 2.06252 23.9919C0.676579 23.9919 -0.0200948 23.3169 0.00213949 21.9376C0.0169623 20.727 -0.0571519 19.5017 0.135545 18.3131C0.528351 15.8258 2.04769 14.1896 4.43417 13.3679C4.96038 13.1845 5.53848 13.0597 6.09433 13.0597C8.87362 13.0377 11.6529 12.9937 14.4322 13.0964C17.0262 13.1845 19.3608 15.1508 20.0056 17.6307C20.176 18.2837 20.2502 18.9807 20.2798 19.6557C20.3169 20.5949 20.3317 21.5414 20.2353 22.4732C20.139 23.4197 19.4423 23.9553 18.4862 23.9846C18.0786 23.9993 17.671 23.9919 17.2633 23.9919C14.8843 23.9919 12.5126 23.9919 10.141 23.9919ZM10.1336 22.9794C12.8758 22.9794 15.618 22.9794 18.3602 22.9794C18.9828 22.9794 19.2422 22.7226 19.2496 22.1137C19.2496 21.1598 19.2644 20.206 19.2422 19.2522C19.22 18.0122 18.7975 16.9043 17.9897 15.9579C16.8928 14.6739 15.4772 14.0576 13.7948 14.0502C11.4009 14.0356 8.99961 14.0282 6.60572 14.0576C5.96093 14.0649 5.30131 14.1676 4.67875 14.351C2.75178 14.9087 1.19538 16.8383 1.08421 18.812C1.02492 19.8759 1.03974 20.9397 1.03233 22.0036C1.02492 22.7667 1.24726 22.9868 2.01805 22.9868C4.72322 22.9868 7.42839 22.9794 10.1336 22.9794Z" fill="white"/>
<path d="M4.00417 6.07511C4.01158 2.71473 6.76863 -0.00732227 10.1631 1.47976e-05C13.5278 0.00735186 16.2849 2.75875 16.2701 6.08978C16.2627 9.44282 13.513 12.1429 10.126 12.1355C6.73898 12.1282 3.99675 9.41347 4.00417 6.07511ZM10.1334 11.1157C12.9423 11.123 15.2473 8.87053 15.2547 6.11179C15.2621 3.29436 12.972 1.00519 10.1482 1.00519C7.35413 1.00519 5.03435 3.27968 5.02694 6.03108C5.01953 8.85585 7.28002 11.1157 10.1334 11.1157Z" fill="white"/>
</svg>
