<svg width="19" height="19" viewBox="0 0 19 19" fill="none" xmlns="http://www.w3.org/2000/svg">
<path d="M14.7777 15.5154C10.7666 18.8966 5.33493 18.2349 2.26803 14.8053C-0.782722 11.3999 -0.75044 6.17077 2.3326 2.87835C5.5367 -0.535104 10.6778 -0.954726 14.3177 1.84544C17.9415 4.63754 19.2247 10.3993 15.5768 14.7488C16.3273 15.4912 17.0779 16.2336 17.8366 16.9841C18.5952 17.7426 18.005 17.1439 18.7556 17.9105C19.1349 18.2978 19.0623 18.7901 18.6103 18.9595C18.2955 19.0806 18.0696 18.9111 17.8678 18.7013C16.528 17.3617 16.5452 17.3795 15.2055 16.0319C15.0441 15.8785 14.923 15.6929 14.7777 15.5154ZM8.88608 1.19987C4.69734 1.11917 1.19462 4.67789 1.17848 8.85796C1.17041 12.9977 4.59242 16.5887 8.88608 16.5645C13.1475 16.5403 16.5372 13.1429 16.5614 8.8741C16.5937 4.60526 13.0183 1.12724 8.88608 1.19987Z" fill="black"/>
</svg>
