<svg width="27" height="27" viewBox="0 0 27 27" fill="none" xmlns="http://www.w3.org/2000/svg">
<path d="M0 17.3052C0.189733 17.0311 0.358384 16.6517 0.642983 16.4092C1.30705 15.8295 2.02381 15.3341 2.69842 14.7649C2.85653 14.6279 2.93031 14.3749 2.98302 14.1641C3.02518 13.9849 2.94086 13.7741 2.98302 13.5843C3.19383 12.7094 2.7722 12.1824 2.07652 11.7397C1.56002 11.4129 1.09623 11.0019 0.621901 10.6118C0.0421628 10.1375 -0.0737849 9.57886 0.29514 8.93588C1.12785 7.47072 1.97111 6.0161 2.82491 4.56149C3.16221 3.96067 3.68924 3.78148 4.34277 4.02391C5.19656 4.35067 6.02928 4.7196 6.88308 5.02528C7.07281 5.09906 7.33633 5.03582 7.54714 4.96203C7.73687 4.89879 7.89498 4.70906 8.08472 4.63527C8.82257 4.3823 9.11771 3.88688 9.14933 3.10687C9.17041 2.46389 9.32852 1.82091 9.41284 1.17792C9.52879 0.408452 9.95042 0.0184462 10.7199 0.00790553C12.3853 -0.00263517 14.0613 -0.00263517 15.7267 0.00790553C16.4646 0.00790553 16.8967 0.408452 17.0127 1.13576C17.1392 1.98956 17.2657 2.83281 17.3711 3.68661C17.4132 4.01337 17.5186 4.24527 17.8559 4.35067C18.0246 4.40338 18.1932 4.47716 18.3197 4.59311C18.9522 5.21501 19.6057 5.07798 20.3119 4.73014C20.86 4.45608 21.4398 4.24527 22.009 4.03445C22.7363 3.76039 23.2739 3.93959 23.6639 4.60365C24.486 6.0161 25.3082 7.42856 26.1093 8.84101C26.5309 9.57886 26.415 10.1164 25.7615 10.6435C25.0869 11.181 24.3912 11.687 23.7377 12.2457C23.5795 12.3721 23.5058 12.6357 23.4531 12.8465C23.4109 13.0046 23.4952 13.2049 23.4531 13.3735C23.2528 14.2695 23.6533 14.8387 24.4017 15.3025C24.9077 15.6187 25.3504 16.0192 25.8142 16.3987C26.3939 16.8625 26.5204 17.4317 26.1515 18.0852C25.3188 19.5504 24.4755 21.005 23.6217 22.4596C23.2633 23.071 22.7152 23.2501 22.0406 22.9866C21.2079 22.6704 20.3857 22.3015 19.5425 21.9958C19.3527 21.922 19.0892 21.9958 18.8784 22.0485C18.7308 22.0907 18.6254 22.2488 18.4778 22.2909C17.4659 22.5755 17.2762 23.3556 17.2235 24.2621C17.1919 24.7996 17.0865 25.3372 17.0021 25.8748C16.8967 26.6021 16.454 26.9921 15.7056 26.9921C14.0402 27.0026 12.3642 27.0026 10.6988 26.9921C9.96096 26.9921 9.51825 26.5915 9.41284 25.8642C9.28636 25.0104 9.15987 24.1672 9.05446 23.3134C9.0123 22.9866 8.90689 22.7547 8.56959 22.6493C8.40094 22.5966 8.23229 22.5228 8.1058 22.4069C7.49444 21.8272 6.87254 21.8799 6.16631 22.2593C5.60765 22.5545 5.00683 22.7547 4.41655 22.9761C3.68924 23.2501 3.15167 23.071 2.76166 22.4069C1.92895 20.9839 1.10677 19.5504 0.284599 18.1274C0.179192 17.9166 0.126488 17.6636 0 17.3052ZM25.2555 17.4001C24.4228 16.7465 23.6217 16.093 22.789 15.4817C22.3884 15.1865 22.2303 14.8703 22.283 14.3749C22.3357 13.8057 22.3357 13.2154 22.283 12.6462C22.2409 12.1719 22.3779 11.8557 22.7679 11.5711C23.6112 10.9492 24.4228 10.2851 25.2555 9.63156C24.3701 8.10316 23.5058 6.61692 22.6414 5.1096C21.5874 5.49961 20.5649 5.86853 19.553 6.26908C19.1841 6.41665 18.8995 6.36395 18.5727 6.14259C18.0351 5.78421 17.4659 5.46799 16.8862 5.17285C16.5594 5.0042 16.3802 4.79338 16.3275 4.41392C16.2116 3.48634 16.064 2.5693 15.9481 1.65225C15.9059 1.35712 15.8427 1.18846 15.4737 1.18846C13.977 1.199 12.4907 1.17792 10.9939 1.15684C10.7094 1.15684 10.6039 1.25171 10.5618 1.53631C10.4353 2.47443 10.2456 3.40201 10.1191 4.34013C10.0558 4.76176 9.86609 5.02528 9.46555 5.20447C8.97014 5.42583 8.48526 5.68934 8.05309 6.0161C7.5893 6.36395 7.18876 6.41665 6.65118 6.17421C5.75522 5.76313 4.8171 5.42582 3.88952 5.0569C2.98302 6.59584 2.10814 8.07154 1.22272 9.56832C2.06598 10.2535 2.85653 10.9386 3.69979 11.5816C4.08979 11.8767 4.1952 12.2035 4.15304 12.6673C4.11087 13.2365 4.11087 13.8268 4.15304 14.396C4.1952 14.8703 4.05817 15.1865 3.66816 15.4711C2.82491 16.093 2.01327 16.7571 1.18056 17.4106C2.06598 18.9495 2.93031 20.4252 3.79465 21.9326C4.52196 21.6585 5.22819 21.4582 5.89225 21.1315C6.85145 20.6571 7.73687 20.5412 8.55905 21.3739C8.56959 21.3844 8.59067 21.395 8.60121 21.4055C9.9188 21.7428 10.2561 22.7126 10.2877 23.9353C10.2983 24.5677 10.4669 25.2002 10.5723 25.8748C12.2378 25.8748 13.8399 25.8642 15.4316 25.8853C15.7162 25.8853 15.8216 25.7905 15.8532 25.5059C15.9902 24.5361 16.1378 23.5558 16.3486 22.5966C16.4013 22.3331 16.6438 22.059 16.8757 21.9009C17.4132 21.532 18.0035 21.2685 18.5411 20.9101C18.8889 20.6782 19.1841 20.6361 19.5741 20.7942C20.5438 21.2053 21.5241 21.5847 22.5149 21.9747C22.5887 21.8693 22.652 21.785 22.7047 21.7007C23.5479 20.2777 24.3912 18.8547 25.2555 17.4001Z" fill="black"/>
<path d="M18.8258 13.5108C18.8258 16.6308 16.3171 19.129 13.2076 19.1184C10.0875 19.1079 7.5894 16.5992 7.61048 13.4791C7.62102 10.3802 10.1086 7.90312 13.2076 7.89258C16.3276 7.89258 18.8258 10.4013 18.8258 13.5108ZM17.719 13.5424C17.7401 11.0864 15.7163 9.04151 13.2392 9.02043C10.7832 8.99935 8.73834 11.0232 8.71726 13.5002C8.69618 15.9562 10.72 18.0011 13.1971 18.0222C15.653 18.0327 17.6979 16.0089 17.719 13.5424Z" fill="black"/>
</svg>
